<svg xmlns="http://www.w3.org/2000/svg" width="92" height="37" fill="none"><ellipse cx="73.76" cy="18.433" fill="#0C2F75" rx="18.239" ry="18.433"/><ellipse cx="49.862" cy="24.788" fill="#0C2F75" rx="1.887" ry="1.907"/><path fill="#0C2F75" fill-rule="evenodd" d="M45.778 10.583h-4.313V19.9l-6.515-9.423H30.96v16.219h4.323l-.052-8.78 6.567 8.906h3.979v-16.24ZM8.322 18.475l6.254 8.22h-5.43L4.49 20.132h-.167v6.563H0V10.582h4.323v6.712h.115l4.396-6.712h4.99l-5.502 7.893Zm13.69 8.621c-4.157 0-7.018-2.754-7.018-6.732v-9.782h4.323v9.793c0 1.635 1.117 2.764 2.694 2.764 1.587 0 2.704-1.129 2.704-2.754v-9.803h4.323v9.782c0 3.978-2.86 6.732-7.027 6.732Z" clip-rule="evenodd"/><path fill="#fff" fill-rule="evenodd" d="M60.212 20.364c0 3.978 2.86 6.732 7.017 6.732 4.166 0 7.027-2.754 7.027-6.732v-9.782h-4.323v9.803c0 1.625-1.117 2.755-2.704 2.755-1.577 0-2.694-1.13-2.694-2.765v-9.793h-4.323v9.782Zm21.656-5.898-6.65 12.23h13.27v-3.894h-6.15l6.62-12.22H76.47v3.884h5.398Z" clip-rule="evenodd"/></svg>